<svg width="53" height="41" viewBox="0 0 53 41" fill="none" xmlns="http://www.w3.org/2000/svg">
<path d="M41.4918 37.7083H45.1667C47.8821 37.7083 50.2478 35.4367 49.3852 32.862C48.0706 28.9382 44.8362 26.5653 39.1504 25.7434M31.6461 17.7085C32.3614 17.9346 33.1808 18.0417 34.1042 18.0417C38.2014 18.0417 40.25 15.9345 40.25 10.6667C40.25 5.39881 38.2014 3.29166 34.1042 3.29166C33.1808 3.29166 32.3614 3.39869 31.6461 3.62481M19.3542 25.4167C29.7987 25.4167 34.5086 28.8476 35.2332 35.7095C35.3492 36.808 34.4379 37.7083 33.3333 37.7083H5.375C4.27043 37.7083 3.35916 36.808 3.47515 35.7095C4.19972 28.8476 8.90966 25.4167 19.3542 25.4167ZM19.3542 18.0417C23.4514 18.0417 25.5 15.9345 25.5 10.6667C25.5 5.39881 23.4514 3.29166 19.3542 3.29166C15.2569 3.29166 13.2083 5.39881 13.2083 10.6667C13.2083 15.9345 15.2569 18.0417 19.3542 18.0417Z" stroke="#FFC007" stroke-width="5" stroke-linecap="round" stroke-linejoin="round"/>
</svg>
